<?xml version="1.0" standalone="no"?>
<!DOCTYPE svg PUBLIC "-//W3C//DTD SVG 20010904//EN"
 "http://www.w3.org/TR/2001/REC-SVG-20010904/DTD/svg10.dtd">
<svg version="1.0" xmlns="http://www.w3.org/2000/svg"
 width="2000.000000pt" height="2000.000000pt" viewBox="0 0 2000.000000 2000.000000"
 preserveAspectRatio="xMidYMid meet">

<g transform="translate(0.000000,2000.000000) scale(0.100000,-0.100000)"
fill="#000000" stroke="none">
<path d="M13184 13848 c4 -18 10 -49 12 -68 l5 -35 -20 40 c-10 22 -20 35 -20
29 -2 -21 -91 -39 -102 -22 -6 10 -59 -39 -59 -54 0 -5 -7 -8 -15 -8 -8 0 -14
-6 -12 -12 1 -7 -3 -12 -10 -11 -7 2 -17 -6 -23 -17 -6 -11 -17 -20 -25 -20
-8 0 -14 -3 -13 -7 1 -5 -6 -26 -15 -47 -10 -22 -19 -63 -20 -92 -2 -28 -8
-58 -14 -65 -6 -8 -13 -23 -16 -34 -3 -11 -5 5 -5 35 0 30 -4 73 -9 95 -6 32
-9 14 -15 -95 -3 -74 -12 -160 -18 -190 -6 -30 -14 -77 -17 -105 -2 -27 -9
-54 -14 -59 -5 -6 -9 -27 -9 -47 0 -21 -4 -41 -10 -44 -5 -3 -10 -19 -10 -36
0 -16 -4 -29 -10 -29 -5 0 -10 -11 -10 -24 0 -14 -4 -28 -10 -31 -5 -3 -10
-17 -10 -30 0 -13 -4 -27 -10 -30 -5 -3 -10 -17 -10 -31 0 -13 -4 -24 -10 -24
-5 0 -10 -9 -10 -19 0 -11 -4 -23 -10 -26 -5 -3 -10 -17 -10 -31 0 -13 -4 -24
-10 -24 -5 0 -10 -8 -10 -17 0 -10 3 -13 9 -8 10 12 64 117 82 163 8 17 20 32
26 32 18 0 16 -25 -2 -43 -13 -13 -13 -16 0 -21 8 -3 15 -13 15 -23 0 -15 -2
-16 -10 -3 -5 8 -10 10 -10 4 0 -6 7 -17 15 -24 12 -10 25 -1 74 47 90 87 91
87 92 66 1 -10 1 -23 0 -30 -1 -6 3 -14 8 -18 6 -3 8 -12 5 -20 -4 -8 1 -17 9
-21 9 -3 13 -12 10 -20 -3 -8 -9 -12 -13 -9 -5 3 -6 -4 -3 -15 3 -11 9 -20 14
-20 5 0 9 -8 9 -18 0 -10 4 -22 10 -28 5 -5 11 -22 12 -37 1 -15 6 -27 10 -27
4 0 8 -5 8 -10 0 -6 12 -29 26 -51 14 -23 24 -50 21 -60 -3 -10 1 -23 8 -29
18 -15 49 -115 42 -135 -4 -8 -2 -15 3 -15 19 0 10 -39 -26 -109 -20 -39 -34
-76 -32 -83 3 -7 11 2 19 20 7 18 17 32 21 32 5 0 8 9 8 20 0 11 4 20 9 20 5
0 11 8 14 18 3 9 12 28 21 42 28 48 65 135 91 215 14 44 30 89 35 100 5 11 14
45 21 75 6 30 15 68 20 84 5 16 16 115 26 220 13 160 14 212 4 321 -18 196
-45 352 -97 553 -17 64 -42 89 -30 30z m46 -190 c0 -10 -4 -18 -10 -18 -5 0
-10 15 -10 33 0 24 3 28 10 17 5 -8 10 -23 10 -32z m-393 -300 c-3 -8 -6 -5
-6 6 -1 11 2 17 5 13 3 -3 4 -12 1 -19z m273 -1043 c0 -8 -4 -17 -10 -20 -6
-4 -10 5 -10 20 0 15 4 24 10 20 6 -3 10 -12 10 -20z"/>
<path d="M12813 13695 c0 -22 2 -30 4 -17 2 12 2 30 0 40 -3 9 -5 -1 -4 -23z"/>
<path d="M13463 12668 c2 -7 10 -29 17 -50 7 -20 18 -34 24 -32 6 2 16 -8 23
-22 10 -21 9 -25 -1 -21 -10 4 -6 -15 11 -61 45 -121 61 -166 73 -212 7 -25
16 -56 20 -70 90 -292 165 -721 180 -1020 5 -102 12 -210 15 -240 7 -51 6 -54
-9 -35 -8 11 -16 26 -16 33 0 6 -4 12 -10 12 -5 0 -10 8 -10 18 0 9 -16 40
-36 67 -20 28 -44 66 -54 85 -19 38 -120 151 -120 135 0 -6 20 -36 43 -67 23
-31 56 -80 72 -108 17 -29 35 -57 40 -64 15 -18 34 -48 47 -76 7 -14 15 -27
18 -30 6 -5 144 -286 160 -325 4 -11 15 -36 23 -55 18 -43 105 -292 118 -340
6 -19 14 -50 20 -67 43 -149 69 -282 99 -498 11 -73 33 -405 32 -465 -1 -64
-21 -304 -31 -370 -5 -36 -14 -101 -19 -145 -12 -100 -54 -309 -64 -313 -5 -2
-8 -16 -8 -30 1 -26 1 -26 15 7 8 18 15 44 15 57 0 12 4 25 9 28 5 3 11 23 14
43 3 21 10 56 17 78 7 22 14 63 17 90 3 28 9 54 14 60 5 5 9 22 9 37 0 39 20
35 21 -4 0 -28 2 -30 9 -13 5 11 9 32 9 47 1 20 5 26 16 22 11 -5 13 -2 9 10
-4 11 -1 16 10 16 8 0 23 15 33 33 l18 32 3 -29 c2 -16 -1 -39 -6 -50 -5 -12
-15 -39 -21 -61 -7 -22 -16 -49 -21 -60 -42 -92 -79 -227 -45 -161 8 15 15 37
15 47 0 11 5 19 10 19 6 0 10 11 10 25 0 14 5 25 10 25 6 0 10 11 10 25 0 14
5 25 10 25 6 0 10 14 10 30 0 17 5 30 10 30 6 0 10 11 10 24 0 14 5 28 10 31
6 3 10 19 10 36 0 16 5 29 10 29 6 0 10 13 10 29 0 17 5 33 10 36 6 3 10 19
10 35 0 16 4 31 9 34 4 3 11 22 14 43 4 21 11 58 17 83 31 127 34 148 64 375
41 310 20 852 -43 1138 -19 83 -31 141 -37 180 -4 21 -11 40 -15 43 -5 3 -9
16 -9 30 0 13 -4 32 -9 42 -5 9 -14 37 -21 62 -7 25 -16 53 -21 62 -5 10 -9
27 -9 37 0 11 -4 23 -10 26 -5 3 -10 15 -10 26 0 10 -4 27 -9 37 -11 22 -26
59 -41 102 -7 19 -21 54 -31 77 -11 24 -19 47 -19 52 0 17 -166 378 -180 391
-3 3 -16 28 -30 55 -13 28 -41 79 -62 114 -21 34 -38 65 -38 67 0 7 -307 474
-319 484 -3 3 -26 34 -50 70 -25 36 -53 72 -63 81 -10 9 -18 21 -18 28 0 6 -5
11 -11 11 -6 0 -9 -6 -6 -12z m957 -3657 c0 -6 -4 -13 -10 -16 -5 -3 -10 1
-10 9 0 9 5 16 10 16 6 0 10 -4 10 -9z m-20 -63 c0 -23 -3 -29 -9 -19 -8 12
-4 51 5 51 2 0 4 -15 4 -32z m-23 -95 c-4 -17 -4 -17 -12 0 -4 9 -4 25 0 35 8
16 8 16 12 0 3 -10 3 -26 0 -35z m-107 -43 c0 -16 -4 -30 -10 -30 -5 0 -10 14
-10 30 0 17 5 30 10 30 6 0 10 -13 10 -30z"/>
<path d="M13001 12074 c0 -11 3 -14 6 -6 3 7 2 16 -1 19 -3 4 -6 -2 -5 -13z"/>
<path d="M12961 12004 c0 -11 3 -14 6 -6 3 7 2 16 -1 19 -3 4 -6 -2 -5 -13z"/>
<path d="M10750 11515 c-36 -7 -92 -18 -125 -25 -149 -29 -317 -105 -403 -184
-50 -46 -152 -183 -152 -204 0 -5 -7 -15 -15 -22 -16 -14 -91 -163 -129 -260
-3 -8 -13 -25 -22 -37 -29 -41 6 -26 81 32 93 74 212 155 225 155 5 0 10 4 10
8 0 8 19 19 138 83 30 16 66 38 82 49 15 11 32 20 37 20 10 0 89 81 213 219
41 46 92 101 113 123 58 62 55 64 -53 43z"/>
<path d="M13340 11517 c0 -4 8 -15 18 -25 41 -44 140 -151 168 -185 33 -39 44
-45 44 -24 -1 19 -230 252 -230 234z"/>
<path d="M13740 11393 c0 -14 -6 -23 -15 -23 -10 0 -15 -7 -13 -17 2 -12 -3
-18 -14 -17 -10 1 -15 -2 -12 -7 3 -5 12 -9 20 -9 8 0 14 -4 14 -9 0 -5 -10
-7 -21 -4 -16 4 -20 2 -17 -8 2 -8 19 -15 36 -17 18 -2 30 -7 27 -12 -8 -12
15 -100 26 -100 5 0 6 -7 3 -15 -4 -8 -13 -15 -22 -15 -11 0 -13 -3 -6 -10 6
-6 19 -8 28 -4 14 5 16 14 11 38 -9 43 -13 84 -15 136 -1 44 -1 45 -15 20 -18
-31 -20 -14 -2 20 10 20 11 30 0 50 -12 25 -13 25 -13 3z"/>
<path d="M11425 10660 c17 -4 53 -19 81 -34 29 -14 55 -26 59 -26 3 0 26 -13
50 -30 24 -16 46 -30 50 -30 10 0 125 -80 195 -135 177 -141 306 -321 378
-530 110 -313 41 -704 -182 -1040 -122 -184 -300 -380 -471 -518 -150 -121
-314 -237 -335 -237 -5 0 -10 -4 -10 -9 0 -5 -9 -13 -20 -16 -11 -3 -26 -12
-32 -18 -12 -11 -55 -36 -133 -75 -16 -9 -43 -26 -60 -38 -32 -24 -408 -210
-490 -242 -27 -11 -102 -45 -165 -75 -63 -29 -131 -61 -150 -69 -89 -40 -139
-62 -188 -84 -29 -13 -55 -24 -57 -24 -2 0 -28 -11 -57 -24 -29 -13 -98 -42
-153 -64 -141 -57 -205 -85 -205 -91 1 -17 184 -114 305 -163 82 -33 223 -78
244 -78 11 0 22 -4 25 -9 7 -10 60 -22 216 -46 72 -12 103 -50 58 -73 -13 -7
-30 -16 -38 -22 -20 -13 -119 -56 -150 -65 -14 -3 -44 -15 -67 -26 -24 -10
-49 -19 -56 -19 -7 0 -17 -4 -23 -8 -5 -5 -29 -17 -54 -26 -25 -10 -61 -24
-80 -33 -19 -8 -45 -19 -57 -24 -13 -5 -35 -14 -50 -20 -16 -7 -38 -16 -50
-20 -13 -5 -33 -13 -45 -18 -13 -5 -30 -12 -38 -15 -8 -4 5 -4 30 -1 25 4 49
10 54 16 6 5 23 9 38 9 15 0 28 4 28 9 0 5 15 11 33 13 17 3 39 8 48 12 11 5
18 1 21 -12 3 -12 15 -20 29 -21 28 -1 72 -7 79 -11 3 -1 14 -3 25 -4 13 -1
19 -7 17 -19 -3 -15 0 -17 16 -8 11 6 22 17 26 26 3 8 10 15 16 15 9 0 0 -23
-22 -54 -107 -151 -196 -249 -308 -340 -41 -33 -84 -69 -94 -78 -11 -10 -26
-18 -33 -18 -7 0 -13 -4 -13 -10 0 -5 -5 -10 -11 -10 -6 0 -29 -13 -52 -29
-40 -27 -90 -57 -147 -88 -14 -7 -20 -13 -13 -13 16 0 237 111 241 122 2 4 8
8 13 8 8 0 35 20 65 48 9 8 14 9 14 3 0 -6 -11 -21 -25 -33 -14 -12 -25 -25
-25 -30 0 -13 26 -9 39 5 12 15 33 15 70 0 l23 -9 -26 -17 c-14 -9 -29 -17
-34 -17 -5 0 -17 -9 -27 -20 -10 -11 -15 -20 -12 -20 20 0 150 63 217 105 30
19 78 46 105 61 28 15 52 30 55 34 8 11 50 19 50 10 0 -5 -8 -13 -17 -19 -16
-8 -14 -11 12 -21 17 -6 44 -12 60 -12 17 0 42 -7 58 -15 15 -7 42 -13 60 -13
68 1 157 -8 169 -17 22 -17 45 -22 55 -12 10 10 63 -10 63 -23 0 -5 11 -8 25
-8 19 0 25 -5 25 -21 0 -16 4 -19 23 -14 12 4 26 11 31 16 6 5 17 9 25 9 11 0
5 -10 -16 -30 -18 -17 -37 -30 -42 -30 -6 0 -11 -4 -11 -10 0 -16 23 -11 50
10 14 11 29 20 33 20 8 0 128 79 137 90 3 3 21 17 40 30 50 34 225 205 274
268 124 160 213 308 318 527 10 22 23 48 28 57 6 10 10 24 10 31 0 7 9 32 20
55 11 22 20 47 20 53 0 21 24 79 32 79 11 0 10 -67 -1 -104 -5 -17 -15 -56
-21 -86 -23 -111 -82 -293 -102 -315 -4 -5 -8 -15 -8 -22 0 -16 -71 -163 -111
-228 -16 -27 -32 -58 -36 -67 -3 -10 -9 -18 -14 -18 -5 0 -9 -7 -9 -15 0 -8
-4 -15 -10 -15 -5 0 -10 -5 -10 -10 0 -6 -13 -24 -30 -42 -16 -17 -30 -35 -30
-41 0 -5 -16 -27 -35 -48 -19 -22 -35 -44 -35 -50 0 -9 64 62 130 145 13 17
44 51 67 76 l43 45 0 -32 c0 -18 5 -33 10 -33 6 0 10 3 10 8 0 4 13 14 28 23
20 11 31 13 39 5 45 -43 63 -56 79 -56 11 0 28 -7 38 -15 27 -21 31 -20 72 21
25 25 38 33 43 25 12 -18 27 8 30 49 2 41 7 47 41 52 14 2 25 10 25 18 0 12
14 15 67 15 40 0 72 5 79 13 7 6 19 12 26 12 7 0 13 4 13 9 0 16 54 29 79 20
27 -11 101 6 101 23 0 5 8 8 18 6 12 -3 24 2 31 14 18 29 110 69 132 57 19
-10 62 2 74 21 4 6 14 8 24 5 17 -5 65 15 111 48 13 9 20 17 15 17 -5 0 6 16
25 35 38 39 50 43 50 17 0 -11 11 -24 25 -30 22 -10 29 -9 47 8 27 25 38 25
38 3 0 -15 4 -13 23 8 12 14 27 24 32 22 6 -2 28 22 50 52 22 30 42 50 43 44
2 -5 -5 -18 -17 -28 -12 -10 -21 -26 -21 -36 0 -9 -16 -33 -34 -51 -19 -19
-38 -45 -42 -57 -3 -12 -13 -33 -21 -45 -8 -13 -11 -27 -7 -30 4 -4 9 -2 11 5
2 7 21 34 42 60 47 60 111 151 111 159 0 3 14 25 30 49 17 24 30 46 30 49 0 3
21 38 48 78 26 40 67 114 92 163 25 50 48 92 52 93 5 2 8 9 8 15 0 7 15 44 34
82 47 97 76 163 76 170 0 4 7 23 16 43 9 21 20 46 25 57 25 60 110 373 128
475 5 30 15 86 22 125 19 110 16 500 -6 610 -9 50 -21 111 -25 137 -47 268
-217 611 -420 853 -118 140 -231 238 -410 359 -112 76 -153 100 -295 174 -79
42 -237 107 -315 131 -19 6 -57 18 -85 27 -80 26 -194 53 -275 64 -41 6 -97
15 -123 21 -60 11 -217 11 -172 -1z m275 -3270 c0 -5 -5 -10 -11 -10 -5 0 -7
5 -4 10 3 6 8 10 11 10 2 0 4 -4 4 -10z m-103 -66 c-3 -3 -12 -4 -19 -1 -8 3
-5 6 6 6 11 1 17 -2 13 -5z m-67 -34 c0 -5 -7 -10 -16 -10 -8 0 -12 5 -9 10 3
6 10 10 16 10 5 0 9 -4 9 -10z m-40 -15 c0 -6 -122 -65 -135 -65 -10 0 113 67
128 69 4 1 7 -1 7 -4z m-153 -81 c-3 -3 -12 -4 -19 -1 -8 3 -5 6 6 6 11 1 17
-2 13 -5z m-80 -40 c-3 -3 -12 -4 -19 -1 -8 3 -5 6 6 6 11 1 17 -2 13 -5z
m-40 -20 c-3 -3 -12 -4 -19 -1 -8 3 -5 6 6 6 11 1 17 -2 13 -5z m-50 -20 c-3
-3 -12 -4 -19 -1 -8 3 -5 6 6 6 11 1 17 -2 13 -5z m-44 -21 c-7 -2 -19 -2 -25
0 -7 3 -2 5 12 5 14 0 19 -2 13 -5z m-166 -59 c-3 -3 -12 -4 -19 -1 -8 3 -5 6
6 6 11 1 17 -2 13 -5z m-80 -20 c-3 -3 -12 -4 -19 -1 -8 3 -5 6 6 6 11 1 17
-2 13 -5z"/>
<path d="M8430 9895 c0 -8 4 -15 9 -15 5 0 11 7 15 15 3 9 0 15 -9 15 -8 0
-15 -7 -15 -15z"/>
<path d="M9148 9723 c7 -3 16 -2 19 1 4 3 -2 6 -13 5 -11 0 -14 -3 -6 -6z"/>
<path d="M5793 9635 c0 -33 2 -45 4 -27 2 18 2 45 0 60 -2 15 -4 0 -4 -33z"/>
<path d="M5774 9548 c-4 -6 -8 -174 -10 -372 -1 -199 -5 -378 -9 -398 -5 -26
-4 -38 4 -38 21 0 11 -21 -16 -31 -14 -5 -32 -17 -39 -27 -12 -15 -12 -15 -7
6 3 12 0 28 -6 36 -6 7 -8 21 -5 30 7 18 -25 56 -46 56 -10 0 -8 -15 6 -55 3
-5 -7 -11 -21 -11 -20 -2 -25 3 -25 22 0 13 5 24 10 24 6 0 10 9 10 20 0 11
-4 20 -10 20 -5 0 -10 -9 -10 -20 0 -11 -4 -20 -10 -20 -5 0 -7 -6 -4 -14 3
-7 -2 -16 -11 -20 -12 -4 -15 -13 -11 -30 4 -16 1 -26 -10 -30 -12 -4 -14 -1
-9 14 4 14 2 20 -8 20 -10 0 -13 7 -10 20 3 11 0 27 -7 36 -25 30 -58 241 -80
524 -6 83 -7 62 -4 -97 2 -111 9 -226 15 -255 6 -29 15 -77 20 -105 16 -93 32
-167 46 -223 8 -30 19 -71 23 -90 22 -92 50 -178 104 -325 55 -147 128 -260
118 -180 -7 50 14 23 27 -33 17 -77 31 -99 31 -50 0 20 -4 39 -9 42 -25 16
-35 515 -13 654 9 55 9 89 0 145 -7 44 -12 207 -12 419 -1 192 -2 348 -3 348
-1 0 -5 -5 -9 -12z m-107 -810 c-3 -8 -6 -5 -6 6 -1 11 2 17 5 13 3 -3 4 -12
1 -19z m-33 -44 c3 -9 3 -20 0 -25 -8 -14 -26 1 -20 16 3 8 0 16 -7 19 -7 2
-5 5 4 5 9 1 20 -6 23 -15z m96 -79 c0 -8 -4 -15 -9 -15 -13 0 -22 16 -14 24
11 11 23 6 23 -9z m-20 -56 c0 -11 -4 -18 -10 -14 -5 3 -7 12 -3 20 7 21 13
19 13 -6z"/>
<path d="M7968 9083 c18 -2 45 -2 60 0 15 2 0 4 -33 4 -33 0 -45 -2 -27 -4z"/>
<path d="M8088 9045 c17 -14 37 -45 45 -68 11 -29 16 -35 16 -19 1 36 -52 112
-79 112 -6 0 2 -11 18 -25z"/>
<path d="M7857 9023 c-11 -20 -14 -60 -7 -78 7 -15 9 -11 9 21 1 22 6 45 13
52 9 9 9 12 1 12 -7 0 -14 -3 -16 -7z"/>
<path d="M7851 8904 c0 -11 3 -14 6 -6 3 7 2 16 -1 19 -3 4 -6 -2 -5 -13z"/>
<path d="M8130 8877 c-7 -18 -22 -40 -33 -49 -15 -14 -17 -18 -5 -18 14 0 66
86 57 95 -3 2 -11 -10 -19 -28z"/>
<path d="M4660 8550 c0 -11 4 -20 9 -20 5 0 7 9 4 20 -3 11 -7 20 -9 20 -2 0
-4 -9 -4 -20z"/>
<path d="M4681 8468 c-1 -21 4 -38 9 -38 6 0 10 -16 10 -35 0 -19 5 -35 10
-35 15 0 12 28 -10 90 l-19 55 0 -37z"/>
<path d="M10131 8484 c0 -11 3 -14 6 -6 3 7 2 16 -1 19 -3 4 -6 -2 -5 -13z"/>
<path d="M14232 8430 c0 -14 2 -19 5 -12 2 6 2 18 0 25 -3 6 -5 1 -5 -13z"/>
<path d="M14212 8380 c0 -14 2 -19 5 -12 2 6 2 18 0 25 -3 6 -5 1 -5 -13z"/>
<path d="M14191 8344 c0 -11 3 -14 6 -6 3 7 2 16 -1 19 -3 4 -6 -2 -5 -13z"/>
<path d="M4720 8321 c0 -17 5 -31 10 -31 6 0 10 -13 10 -29 0 -17 5 -33 10
-36 6 -3 10 -15 10 -26 0 -10 5 -19 10 -19 6 0 10 -13 10 -30 0 -16 5 -30 10
-30 6 0 10 -13 10 -30 0 -16 5 -30 10 -30 6 0 10 -11 10 -24 0 -14 5 -28 10
-31 6 -3 10 -15 10 -26 0 -10 5 -19 10 -19 6 0 10 -11 10 -25 0 -14 4 -25 8
-25 4 0 14 -20 21 -45 7 -25 17 -45 22 -45 5 0 9 -8 9 -18 0 -20 123 -267 141
-282 3 -3 16 -25 30 -50 13 -25 26 -47 29 -50 3 -3 11 -17 19 -32 8 -16 18
-28 23 -28 4 0 8 -6 8 -13 0 -7 8 -22 18 -33 9 -11 22 -27 27 -35 58 -89 94
-139 147 -205 34 -44 65 -81 68 -84 3 -3 25 -30 50 -60 58 -70 320 -332 390
-390 30 -25 57 -47 60 -50 3 -3 21 -17 40 -30 19 -14 42 -30 50 -37 24 -20
179 -130 255 -181 117 -78 281 -162 425 -218 25 -9 49 -21 55 -26 5 -4 17 -8
27 -8 10 0 37 -8 61 -19 48 -21 83 -34 147 -51 25 -7 58 -16 74 -21 15 -5 32
-7 36 -4 4 3 35 -4 69 -15 81 -25 127 -34 142 -24 7 4 -14 14 -52 24 -94 26
-230 88 -349 160 -58 34 -121 72 -140 83 -113 63 -323 229 -463 366 -105 103
-137 141 -119 141 5 0 61 -49 124 -108 63 -59 143 -130 178 -156 110 -84 280
-196 296 -196 9 0 28 -8 42 -18 89 -61 366 -206 383 -200 7 2 -5 17 -27 34
-49 36 -151 118 -184 147 -14 12 -41 33 -60 46 -45 32 -367 354 -406 406 -16
22 -35 46 -42 53 -7 8 -25 30 -40 50 -15 21 -32 43 -39 50 -7 7 -20 26 -30 42
-9 17 -21 30 -25 30 -4 0 -8 7 -8 15 0 8 -3 15 -7 15 -5 0 -19 17 -33 38 -14
20 -31 43 -37 50 -7 7 -13 17 -13 21 0 4 -9 18 -20 31 -27 31 -25 20 5 -34 30
-54 32 -73 5 -48 -13 12 -30 17 -44 15 -18 -4 -26 0 -31 16 -3 12 -13 21 -21
21 -8 0 -14 7 -14 15 0 8 -4 15 -8 15 -4 0 -16 13 -25 29 -10 17 -26 33 -37
36 -11 4 -23 18 -26 32 -6 22 -11 24 -36 19 -24 -5 -34 -1 -50 19 -11 14 -26
25 -34 25 -8 0 -14 5 -14 10 0 16 -42 70 -50 65 -11 -7 -62 44 -55 55 3 6 -6
15 -20 20 -14 5 -23 14 -20 20 3 5 2 10 -4 10 -6 0 -8 7 -5 15 4 8 1 15 -5 15
-5 0 -20 10 -31 22 -19 21 -20 23 -3 30 14 5 12 7 -9 7 -21 1 -28 6 -28 21 0
11 -7 23 -16 27 -15 6 -15 7 0 19 16 11 16 13 -4 19 -17 5 -19 10 -9 21 10 13
6 18 -13 15 -4 0 -10 10 -14 24 -3 14 -10 25 -16 25 -5 0 -7 4 -4 9 12 18 -7
41 -33 41 -22 1 -23 2 -9 11 26 14 3 62 -25 53 -15 -5 -19 -3 -14 9 3 9 0 14
-11 13 -11 -1 -16 7 -17 24 0 15 -5 24 -12 23 -17 -4 -17 24 -1 29 9 3 9 6 0
12 -7 4 -12 2 -12 -3 0 -6 -4 -11 -10 -11 -5 0 -7 6 -4 14 7 19 -47 70 -58 53
-6 -9 -14 -5 -28 13 -11 14 -20 30 -20 36 0 6 -11 23 -25 38 -14 15 -25 34
-25 43 0 9 -6 13 -14 10 -15 -6 -32 25 -23 40 3 5 -8 8 -24 9 -25 1 -29 -2
-24 -20 5 -17 3 -17 -9 4 -8 14 -13 27 -11 31 2 3 -2 6 -9 6 -8 0 -12 -6 -9
-13 2 -6 0 -15 -6 -19 -7 -3 -11 2 -11 14 0 21 -14 34 -42 38 -11 2 -18 -3
-18 -12 0 -9 10 -15 26 -15 14 0 23 -4 19 -10 -14 -23 -42 -9 -57 28 -14 35
-18 39 -55 40 -34 2 -42 -2 -47 -21 -4 -16 -8 -19 -15 -9 -6 11 -11 10 -24 -3
-9 -8 -20 -14 -24 -13 -4 2 -9 -21 -10 -51 -2 -30 -8 -62 -14 -73 -7 -14 -6
-20 6 -24 8 -3 15 -15 15 -25 0 -33 -16 -21 -38 29 -48 108 -142 367 -142 392
0 10 -4 22 -10 25 -6 4 -10 -7 -10 -24z m566 -456 c19 -14 19 -14 -1 -14 -11
0 -29 6 -39 14 -20 15 -20 15 0 15 11 0 29 -7 40 -15z m-320 -89 c3 -20 10
-36 15 -36 5 0 9 -7 9 -15 0 -30 -16 -13 -42 46 -33 72 -35 86 -9 60 11 -11
23 -36 27 -55z m379 64 c3 -5 -3 -10 -14 -10 -12 0 -21 5 -21 10 0 6 6 10 14
10 8 0 18 -4 21 -10z m-44 -27 c64 -53 71 -71 37 -103 -12 -11 -18 -20 -12
-20 5 0 15 -13 22 -30 8 -16 20 -30 28 -30 8 0 39 -52 74 -122 75 -152 120
-235 160 -293 16 -24 30 -46 30 -50 0 -5 143 -223 253 -383 35 -52 36 -56 20
-74 -18 -21 -53 -24 -71 -6 -7 7 -12 35 -12 63 0 45 -6 57 -60 130 -33 44 -60
84 -60 88 0 4 -32 56 -71 114 -86 128 -185 301 -249 438 -26 55 -57 109 -69
119 -11 11 -21 25 -21 32 0 8 -9 19 -20 26 -11 7 -20 20 -20 30 0 9 -4 20 -10
23 -5 3 -10 19 -10 36 0 34 27 40 61 12z m1029 -999 c0 -20 -7 -17 -20 6 -9
16 -8 18 5 14 8 -4 15 -12 15 -20z m40 -56 c0 -4 -9 0 -19 9 -11 9 -18 21 -15
25 6 9 33 -20 34 -34z"/>
<path d="M14171 8294 c0 -11 3 -14 6 -6 3 7 2 16 -1 19 -3 4 -6 -2 -5 -13z"/>
<path d="M14151 8254 c0 -11 3 -14 6 -6 3 7 2 16 -1 19 -3 4 -6 -2 -5 -13z"/>
<path d="M14100 8239 c0 -5 5 -7 10 -4 6 3 10 8 10 11 0 2 -4 4 -10 4 -5 0
-10 -5 -10 -11z"/>
<path d="M14131 8224 c0 -11 3 -14 6 -6 3 7 2 16 -1 19 -3 4 -6 -2 -5 -13z"/>
<path d="M5220 8071 c0 -5 5 -13 10 -16 6 -3 10 -2 10 4 0 5 -4 13 -10 16 -5
3 -10 2 -10 -4z"/>
<path d="M14001 7983 c0 -25 1 -26 9 -8 12 27 12 35 0 35 -5 0 -10 -12 -9 -27z"/>
<path d="M13971 7936 c-7 -8 -11 -23 -8 -33 4 -15 5 -14 6 4 0 12 7 23 14 26
6 2 9 7 6 11 -3 4 -12 0 -18 -8z"/>
<path d="M8633 7917 c-17 -16 -23 -35 -23 -64 0 -59 46 -103 107 -103 50 0 67
20 78 90 3 25 9 52 11 61 5 18 -22 27 -106 35 -37 3 -49 0 -67 -19z m61 -13
c21 -8 20 -24 -1 -24 -9 0 -27 -9 -39 -21 -29 -27 -39 -8 -13 25 22 27 28 30
53 20z m65 -83 c-8 -17 -21 -33 -29 -36 -12 -5 -13 -4 -2 6 6 7 12 19 12 26 0
14 22 43 29 38 2 -2 -3 -18 -10 -34z m-42 13 c-3 -3 -12 -4 -19 -1 -8 3 -5 6
6 6 11 1 17 -2 13 -5z m-17 -34 c0 -5 -9 -10 -21 -10 -11 0 -17 5 -14 10 3 6
13 10 21 10 8 0 14 -4 14 -10z"/>
<path d="M5831 7858 c-1 -27 3 -48 7 -48 4 0 6 17 4 38 -5 58 -10 62 -11 10z"/>
<path d="M13941 7864 c0 -11 3 -14 6 -6 3 7 2 16 -1 19 -3 4 -6 -2 -5 -13z"/>
<path d="M6032 7800 c0 -19 2 -27 5 -17 2 9 2 25 0 35 -3 9 -5 1 -5 -18z"/>
<path d="M6052 7735 c0 -16 2 -22 5 -12 2 9 2 23 0 30 -3 6 -5 -1 -5 -18z"/>
<path d="M6070 7672 c0 -12 5 -22 10 -22 6 0 10 -9 10 -21 0 -11 4 -18 10 -14
6 3 5 16 -2 33 -17 40 -28 49 -28 24z"/>
<path d="M5892 7660 c0 -14 2 -19 5 -12 2 6 2 18 0 25 -3 6 -5 1 -5 -13z"/>
<path d="M5912 7610 c0 -14 2 -19 5 -12 2 6 2 18 0 25 -3 6 -5 1 -5 -13z"/>
<path d="M5932 7560 c0 -14 2 -19 5 -12 2 6 2 18 0 25 -3 6 -5 1 -5 -13z"/>
<path d="M6131 7532 c0 -4 7 -23 14 -42 l13 -35 1 36 c1 24 -4 39 -14 43 -8 3
-15 2 -14 -2z"/>
<path d="M5951 7504 c0 -11 3 -14 6 -6 3 7 2 16 -1 19 -3 4 -6 -2 -5 -13z"/>
<path d="M7620 7472 c-25 -2 -49 -7 -54 -13 -6 -5 -18 -9 -27 -9 -10 0 -26
-15 -37 -33 -17 -26 -20 -43 -15 -92 7 -78 26 -115 58 -115 14 0 28 -1 32 -2
4 -2 9 5 11 15 2 10 -3 17 -11 17 -22 0 -57 65 -60 112 -4 41 12 68 38 68 7 0
15 7 19 15 4 10 20 15 51 15 52 0 115 -34 115 -62 0 -10 5 -18 11 -18 10 0 8
-32 -7 -112 -11 -56 12 -26 25 32 16 70 6 107 -42 152 -33 32 -47 36 -107 30z"/>
<path d="M5971 7454 c0 -11 3 -14 6 -6 3 7 2 16 -1 19 -3 4 -6 -2 -5 -13z"/>
<path d="M5991 7414 c0 -11 3 -14 6 -6 3 7 2 16 -1 19 -3 4 -6 -2 -5 -13z"/>
<path d="M7540 7300 c0 -5 5 -10 10 -10 6 0 10 5 10 10 0 6 -4 10 -10 10 -5 0
-10 -4 -10 -10z"/>
<path d="M7638 7223 c-18 -5 -23 -15 -12 -26 8 -7 54 13 54 25 0 8 -13 9 -42
1z"/>
<path d="M6100 7179 c0 -5 5 -7 10 -4 6 3 10 8 10 11 0 2 -4 4 -10 4 -5 0 -10
-5 -10 -11z"/>
<path d="M9290 7147 c-32 -12 -110 -47 -132 -58 -10 -5 -24 -9 -32 -9 -7 0
-20 -7 -27 -17 -13 -15 -11 -16 14 -9 22 5 35 0 67 -25 36 -29 38 -33 22 -45
-16 -13 -16 -13 1 -14 9 0 17 -5 17 -11 0 -8 -23 -10 -70 -7 -49 2 -70 0 -70
-8 0 -7 17 -14 38 -17 122 -18 261 -40 357 -57 61 -11 147 -22 193 -26 45 -3
82 -9 82 -14 0 -19 -692 -29 -775 -11 -22 5 -71 12 -110 15 -56 5 -64 4 -40
-5 114 -39 476 -69 827 -69 115 0 208 -3 208 -5 0 -3 -30 -19 -67 -37 -114
-56 -43 -43 149 27 101 36 193 71 206 76 48 20 69 27 112 40 50 15 100 38 85
40 -5 0 -62 2 -125 3 -127 2 -239 17 -315 40 -27 9 -62 16 -77 16 -15 0 -30 5
-33 10 -3 6 -17 10 -31 10 -13 0 -32 4 -42 9 -9 5 -37 14 -62 21 -25 7 -62 21
-83 31 -22 10 -45 19 -53 19 -8 0 -22 4 -32 9 -168 85 -177 88 -202 78z m-30
-57 c0 -5 -7 -10 -16 -10 -8 0 -12 5 -9 10 3 6 10 10 16 10 5 0 9 -4 9 -10z"/>
<path d="M6160 7078 c0 -10 3 -18 8 -18 4 0 15 -12 24 -27 10 -16 18 -22 18
-15 0 7 -5 18 -10 25 -6 7 -17 21 -25 32 -13 18 -14 18 -15 3z"/>
<path d="M12685 6780 c3 -5 8 -10 11 -10 2 0 4 5 4 10 0 6 -5 10 -11 10 -5 0
-7 -4 -4 -10z"/>
<path d="M12737 6743 c-10 -9 -9 -23 2 -23 5 0 11 7 15 15 5 15 -5 20 -17 8z"/>
<path d="M9688 6663 c6 -2 18 -2 25 0 6 3 1 5 -13 5 -14 0 -19 -2 -12 -5z"/>
<path d="M9640 6650 l-25 -8 28 -1 c15 -1 27 4 27 9 0 6 -1 10 -2 9 -2 -1 -14
-5 -28 -9z"/>
<path d="M9588 6623 c7 -3 16 -2 19 1 4 3 -2 6 -13 5 -11 0 -14 -3 -6 -6z"/>
<path d="M9618 6563 c6 -2 18 -2 25 0 6 3 1 5 -13 5 -14 0 -19 -2 -12 -5z"/>
<path d="M9558 6543 c6 -2 18 -2 25 0 6 3 1 5 -13 5 -14 0 -19 -2 -12 -5z"/>
<path d="M7781 6145 c-13 -8 -28 -21 -33 -29 -5 -9 -15 -16 -22 -16 -16 0 -36
-43 -36 -77 0 -34 35 -86 74 -109 31 -18 93 -23 139 -11 39 11 87 80 87 128 0
52 -15 80 -55 107 -40 25 -114 29 -154 7z m166 -112 c-3 -10 -5 -2 -5 17 0 19
2 27 5 18 2 -10 2 -26 0 -35z"/>
<path d="M10586 5955 c-20 -15 -20 -15 0 -15 10 1 30 7 44 15 l25 14 -25 0
c-14 0 -34 -6 -44 -14z"/>
<path d="M9338 5933 c7 -3 16 -2 19 1 4 3 -2 6 -13 5 -11 0 -14 -3 -6 -6z"/>
<path d="M9298 5913 c7 -3 16 -2 19 1 4 3 -2 6 -13 5 -11 0 -14 -3 -6 -6z"/>
<path d="M10348 5863 c7 -3 16 -2 19 1 4 3 -2 6 -13 5 -11 0 -14 -3 -6 -6z"/>
<path d="M10896 5855 c-11 -8 -15 -15 -9 -15 6 0 16 7 23 15 16 19 11 19 -14
0z"/>
<path d="M10253 5843 c9 -2 23 -2 30 0 6 3 -1 5 -18 5 -16 0 -22 -2 -12 -5z"/>
<path d="M10018 5803 c12 -2 32 -2 45 0 12 2 2 4 -23 4 -25 0 -35 -2 -22 -4z"/>
<path d="M9558 5783 c6 -2 18 -2 25 0 6 3 1 5 -13 5 -14 0 -19 -2 -12 -5z"/>
<path d="M9638 5783 c7 -3 16 -2 19 1 4 3 -2 6 -13 5 -11 0 -14 -3 -6 -6z"/>
<path d="M10680 5700 c0 -5 -7 -10 -15 -10 -8 0 -15 -3 -15 -8 0 -4 -15 -13
-32 -21 -18 -8 -35 -17 -38 -20 -15 -17 -202 -110 -305 -151 -11 -4 -41 -17
-67 -29 -26 -12 -54 -21 -62 -21 -8 0 -18 -4 -21 -10 -3 -5 -15 -10 -26 -10
-10 0 -27 -4 -37 -9 -17 -9 -124 -41 -197 -59 -61 -16 -116 -29 -160 -40 -94
-24 -221 -44 -435 -68 -266 -30 -1007 -20 -1220 15 -30 6 -89 15 -130 21 -93
15 -322 58 -372 71 -21 5 -56 14 -78 19 -90 22 -126 33 -148 41 -13 5 -30 9
-39 9 -27 0 3 -26 90 -77 158 -92 432 -233 452 -233 8 0 15 -4 15 -10 0 -5 6
-10 13 -10 7 0 32 -9 55 -20 22 -11 46 -20 52 -20 5 0 18 -4 28 -9 115 -58
454 -147 732 -191 41 -6 84 -14 95 -16 70 -17 295 -28 580 -28 311 -1 384 4
605 34 41 6 98 13 125 16 28 3 54 10 59 15 6 5 25 9 42 9 18 0 36 5 39 10 3 6
22 10 41 10 19 0 34 5 34 10 0 6 16 10 35 10 19 0 35 5 35 10 0 6 16 10 36 10
22 0 33 4 29 11 -4 6 -22 9 -40 7 -47 -3 -54 8 -11 16 28 5 37 13 43 34 11 44
6 102 -10 120 -9 11 -12 24 -7 37 4 11 6 25 4 30 -2 6 7 23 21 40 18 20 24 36
20 52 -3 13 -1 23 5 23 17 0 -12 38 -33 44 -10 2 -17 9 -13 14 6 10 -13 81
-27 100 -5 6 -26 12 -46 12 l-36 0 55 31 c30 18 105 63 167 101 110 68 148 98
124 98 -6 0 -11 -4 -11 -10z m-295 -750 c4 -6 -7 -10 -27 -10 -25 0 -29 3 -18
10 19 13 37 13 45 0z"/>
<path d="M10688 5023 c7 -3 16 -2 19 1 4 3 -2 6 -13 5 -11 0 -14 -3 -6 -6z"/>
<path d="M10628 5003 c6 -2 18 -2 25 0 6 3 1 5 -13 5 -14 0 -19 -2 -12 -5z"/>
<path d="M10547 4984 c-3 -4 -21 -10 -39 -14 l-33 -8 38 -1 c20 -1 37 3 37 8
0 6 15 12 33 14 l32 4 -31 1 c-17 1 -33 -1 -37 -4z"/>
</g>
</svg>
