<?xml version="1.0" standalone="no"?> <!DOCTYPE svg PUBLIC "-//W3C//DTD SVG 20010904//EN" "http://www.w3.org/TR/2001/REC-SVG-20010904/DTD/svg10.dtd"> <svg version="1.0" xmlns="http://www.w3.org/2000/svg" width="600.000000pt" height="600.000000pt" viewBox="0 0 600.000000 600.000000" preserveAspectRatio="xMidYMid meet"> <g transform="translate(0.000000,600.000000) scale(0.100000,-0.100000)" fill="#3b632c" stroke="none"> <path d="M3666 4572 c-35 -71 -116 -206 -175 -292 -76 -111 -164 -210 -308 -347 -76 -73 -158 -161 -183 -195 -51 -70 -111 -204 -102 -227 4 -10 11 3 18 32 7 26 16 53 22 60 5 7 13 23 17 36 9 31 85 129 150 195 79 79 176 166 187 166 5 0 6 5 2 12 -5 7 -2 9 8 5 10 -3 24 3 35 16 l18 22 -22 -19 c-13 -11 -23 -15 -23 -9 0 16 36 44 45 36 4 -5 5 -3 2 3 -9 16 34 52 60 49 14 -1 19 3 16 12 -4 10 -9 11 -19 2 -8 -7 -14 -7 -14 -1 0 15 26 33 35 24 4 -4 6 0 3 8 -5 16 22 51 34 44 4 -3 5 1 2 9 -5 15 11 32 31 32 6 0 10 8 10 17 0 23 44 80 55 73 6 -4 7 1 3 11 -5 13 -3 15 8 9 12 -8 12 -6 0 8 -7 9 -9 17 -5 17 5 0 27 33 47 74 21 41 46 82 56 93 10 10 16 24 14 30 -3 7 3 9 14 6 22 -6 89 -97 87 -119 -1 -8 0 -13 3 -10 7 7 43 -33 43 -48 0 -6 -7 -2 -15 8 -8 11 -15 15 -15 9 0 -7 10 -20 23 -30 12 -10 23 -25 25 -33 2 -8 11 -23 20 -34 9 -10 16 -20 14 -22 -1 -2 4 -17 13 -34 13 -25 22 -65 24 -108 1 -7 4 -11 9 -9 4 3 8 -15 9 -40 1 -25 6 -49 11 -52 5 -3 10 -57 11 -120 1 -107 0 -113 -16 -100 -16 12 -17 12 -6 -2 14 -17 6 -92 -8 -83 -5 3 -6 -3 -2 -12 5 -13 3 -15 -7 -9 -9 6 -11 4 -5 -4 4 -7 -1 -30 -10 -52 -15 -33 -20 -37 -33 -26 -13 10 -14 9 -2 -12 11 -21 10 -23 -3 -18 -11 4 -14 0 -10 -16 4 -17 2 -19 -5 -8 -6 8 -17 16 -26 17 -9 1 -23 9 -32 18 -8 9 -24 21 -34 26 -24 13 -21 46 8 87 12 17 22 39 22 48 0 9 5 13 10 10 6 -4 10 5 10 20 0 14 6 41 14 59 7 18 17 57 21 87 4 30 9 61 10 70 3 15 -7 114 -20 198 -3 19 -9 39 -14 45 -4 6 -14 32 -22 59 -7 26 -17 47 -22 47 -4 0 -5 5 -2 10 3 6 1 10 -5 10 -7 0 -9 7 -6 17 4 10 4 14 0 11 -3 -4 -15 3 -24 15 -16 19 -76 34 -64 16 2 -4 -3 -14 -11 -22 -8 -9 -15 -22 -15 -29 0 -8 -9 -24 -19 -35 -11 -12 -17 -23 -15 -26 3 -3 -6 -30 -21 -61 -14 -30 -26 -58 -25 -62 1 -4 -4 -10 -10 -14 -7 -4 -12 -19 -12 -34 0 -27 -12 -35 -22 -13 -3 6 -3 -1 0 -18 4 -19 2 -25 -3 -18 -6 9 -9 1 -10 -21 -1 -19 -6 -42 -13 -53 -10 -16 -11 -16 -6 0 3 9 0 17 -5 17 -6 0 -9 -9 -6 -20 3 -10 -1 -24 -9 -31 -8 -6 -12 -15 -9 -19 3 -4 -2 -13 -10 -20 -8 -7 -15 -18 -15 -25 0 -7 -7 -18 -15 -25 -8 -7 -12 -17 -8 -23 4 -6 0 -8 -11 -4 -10 4 -15 3 -11 -3 7 -11 -29 -63 -37 -54 -3 3 -5 -6 -4 -18 1 -17 -4 -23 -17 -22 -10 1 -16 -1 -13 -4 10 -9 -33 -34 -46 -26 -7 4 -8 3 -4 -4 4 -7 -7 -18 -26 -28 -18 -9 -36 -22 -40 -28 -4 -6 -8 -7 -8 -3 0 8 -84 -67 -126 -113 -31 -34 -67 -85 -105 -150 -18 -30 -36 -56 -41 -58 -4 -2 -8 -11 -8 -20 0 -9 -14 -37 -30 -62 -16 -25 -30 -48 -30 -52 0 -5 -8 -17 -17 -27 -10 -10 -34 -38 -53 -61 -42 -51 -115 -121 -138 -134 -10 -5 -3 6 14 25 36 39 58 78 50 87 -3 3 -6 1 -6 -5 0 -6 -20 -32 -45 -58 -25 -25 -42 -51 -39 -57 5 -7 2 -8 -5 -3 -11 6 -51 -24 -51 -40 0 -30 148 72 206 140 21 27 45 54 52 61 7 8 11 14 7 14 -4 0 1 7 9 16 23 22 86 133 86 150 0 7 3 14 8 14 4 0 20 24 36 53 61 109 144 199 266 288 19 14 100 61 180 104 158 85 260 150 260 166 0 6 -3 8 -7 6 -5 -2 -54 -32 -110 -66 -56 -33 -105 -61 -108 -61 -3 0 -23 -11 -43 -25 -56 -38 -59 -30 -8 25 41 46 153 248 171 310 15 51 124 270 134 270 15 0 78 -135 98 -210 13 -46 18 -100 17 -185 -1 -136 -19 -205 -80 -309 -19 -33 -32 -66 -29 -75 5 -17 127 -111 143 -111 16 0 83 126 104 195 41 131 27 312 -38 483 -48 129 -155 305 -221 364 -18 17 -20 16 -47 -40z"/> <path d="M3650 4490 c0 -5 5 -10 11 -10 5 0 7 5 4 10 -3 6 -8 10 -11 10 -2 0 -4 -4 -4 -10z"/> <path d="M2930 4423 c0 -21 17 -105 37 -187 35 -143 36 -151 25 -226 -6 -43 -22 -106 -36 -141 -14 -34 -25 -64 -23 -66 2 -1 24 26 50 61 80 108 238 244 322 276 27 10 27 11 9 32 -11 12 -39 40 -63 62 -24 23 -49 46 -55 51 -61 57 -231 175 -252 175 -10 0 -14 -12 -14 -37z m72 -20 c22 -16 48 -32 56 -38 9 -5 27 -20 41 -32 14 -13 32 -23 39 -23 9 0 12 -6 8 -16 -3 -8 -2 -13 3 -9 13 7 38 -4 45 -20 3 -9 0 -12 -10 -8 -7 3 -14 9 -14 14 0 6 -6 4 -14 -3 -18 -17 -14 -21 28 -23 38 -1 80 -31 72 -51 -3 -8 0 -11 8 -8 7 3 19 -2 25 -10 11 -13 8 -18 -19 -33 -18 -10 -53 -33 -77 -51 -24 -18 -48 -30 -54 -27 -5 4 -8 1 -7 -6 2 -7 -7 -18 -19 -23 -12 -6 -26 -20 -32 -33 -6 -13 -15 -23 -21 -23 -6 0 -8 5 -5 10 10 16 -1 11 -16 -7 -10 -11 -10 -14 -1 -9 6 4 12 2 12 -3 0 -6 -4 -11 -9 -11 -5 0 -18 -15 -30 -32 -17 -27 -21 -29 -21 -12 0 11 4 24 9 30 13 13 26 248 13 240 -6 -4 -15 15 -21 44 -14 63 -14 63 1 54 7 -4 8 -3 4 5 -4 6 -11 9 -16 6 -9 -5 -30 71 -30 109 0 32 1 32 52 -1z"/> <path d="M3210 4226 c0 -2 8 -10 18 -17 15 -13 16 -12 3 4 -13 16 -21 21 -21 13z"/> <path d="M3207 4139 c7 -7 15 -10 18 -7 3 3 -2 9 -12 12 -14 6 -15 5 -6 -5z"/> <path d="M2540 4090 c-222 -42 -438 -138 -630 -279 -85 -62 -257 -225 -265 -251 -3 -10 -19 -20 -35 -24 -32 -6 -40 -32 -18 -54 8 -8 3 -21 -23 -50 -73 -84 -135 -172 -119 -172 6 0 23 19 38 43 46 72 116 154 141 166 19 10 22 17 17 41 -5 27 3 38 87 123 140 141 274 235 459 321 152 72 372 135 475 137 21 0 56 4 78 8 35 8 30 9 -35 9 -41 0 -118 -8 -170 -18z m-917 -591 c-8 -8 -13 -8 -17 0 -4 6 -2 11 4 11 6 0 8 6 4 13 -6 10 -4 10 7 0 9 -10 10 -16 2 -24z"/> <path d="M3186 4023 c-6 -14 -5 -15 5 -6 7 7 10 15 7 18 -3 3 -9 -2 -12 -12z"/> <path d="M3369 3883 c-13 -16 -12 -17 4 -4 16 13 21 21 13 21 -2 0 -10 -8 -17 -17z"/> <path d="M4025 3804 c-17 -53 -65 -144 -102 -196 -38 -51 -43 -82 -11 -62 6 4 8 3 5 -3 -9 -15 39 -57 54 -48 7 5 10 4 6 -2 -3 -5 15 -34 42 -64 103 -117 175 -253 218 -414 23 -88 26 -118 26 -255 0 -174 -17 -259 -73 -370 -42 -83 -32 -88 14 -6 242 432 213 865 -86 1315 -86 129 -86 129 -93 105z m54 -107 c31 -94 60 -242 66 -337 3 -47 2 -78 -1 -70 -4 8 -14 24 -23 34 -13 16 -13 18 -1 11 8 -5 -20 30 -63 78 -43 49 -75 93 -71 99 4 6 3 8 -4 4 -5 -3 -24 6 -42 20 l-31 27 22 23 c12 13 26 21 32 17 6 -3 7 -1 4 4 -4 6 0 16 8 23 8 7 15 19 15 27 0 7 10 33 22 56 12 23 21 49 19 56 -2 12 0 13 13 2 8 -7 24 -40 35 -74z m77 -120 c-2 -10 0 -14 7 -10 7 4 8 0 4 -11 -4 -10 -3 -15 3 -11 11 7 45 -54 41 -75 -2 -8 1 -11 5 -7 10 10 46 -81 38 -95 -5 -7 -2 -8 5 -4 8 5 11 3 10 -5 -2 -8 2 -24 9 -37 7 -12 10 -28 6 -34 -4 -6 -3 -8 3 -5 10 6 31 -75 40 -153 10 -84 11 -330 2 -324 -6 3 -16 1 -23 -5 -10 -8 -12 -4 -8 19 2 17 0 30 -4 30 -5 0 -9 27 -9 59 0 33 -1 58 -4 55 -2 -2 -14 33 -26 78 -29 109 -60 190 -69 181 -4 -4 -4 0 -1 9 3 8 0 22 -8 29 -9 9 -17 50 -21 109 -4 52 -9 111 -12 130 -3 19 -5 45 -5 58 -1 12 -4 22 -8 22 -4 0 -8 6 -8 13 0 6 -3 23 -7 37 -7 24 -6 24 19 -5 14 -16 24 -38 21 -48z m176 -803 c-5 -32 -24 -74 -33 -74 -12 0 -11 17 1 25 6 4 8 10 5 15 -3 5 -3 21 1 35 7 29 31 28 26 -1z m-32 -109 c-6 -8 -9 -19 -5 -25 3 -5 1 -10 -4 -10 -12 0 -15 33 -4 43 13 14 25 7 13 -8z"/> <path d="M4020 3701 c0 -6 4 -13 10 -16 6 -3 7 1 4 9 -7 18 -14 21 -14 7z"/> <path d="M3810 3676 c0 -2 8 -10 18 -17 15 -13 16 -12 3 4 -13 16 -21 21 -21 13z"/> <path d="M2881 3488 c0 -9 -4 -25 -7 -35 -5 -17 -5 -17 6 0 6 10 9 25 7 35 -4 15 -5 15 -6 0z"/> <path d="M1860 3434 c-113 -63 -173 -106 -251 -184 -97 -95 -158 -190 -198 -307 -27 -81 -31 -106 -31 -197 0 -218 71 -417 220 -615 137 -181 313 -303 523 -362 58 -17 75 -18 110 -8 23 7 47 17 52 22 6 6 3 7 -10 4 -66 -19 -71 -18 -132 22 -162 109 -338 357 -387 547 -22 85 -23 484 -1 607 15 89 70 254 123 369 17 37 29 75 28 85 -2 10 -1 12 1 5 4 -10 8 -9 19 5 14 16 14 15 9 -17 -5 -28 -4 -32 5 -20 10 12 11 11 7 -7 -3 -12 -1 -23 5 -25 12 -4 14 -227 4 -280 -5 -21 -12 -36 -16 -33 -5 3 -12 0 -16 -6 -5 -8 -3 -9 6 -4 16 10 6 -22 -26 -88 -32 -66 -49 -88 -59 -79 -4 4 -5 -1 -2 -10 3 -9 0 -22 -8 -28 -7 -6 -18 -24 -25 -41 -7 -16 -15 -27 -18 -24 -9 8 -41 -75 -41 -105 0 -17 10 -3 33 46 19 40 51 96 72 125 96 133 127 226 127 379 0 115 -25 249 -48 257 -6 1 -39 -13 -75 -33z m-23 -48 c-74 -80 -162 -254 -194 -385 -19 -78 -21 -256 -4 -348 12 -63 77 -265 102 -315 5 -10 9 -27 9 -37 0 -11 5 -23 10 -26 6 -4 8 -15 5 -26 -4 -12 -1 -21 8 -25 9 -3 18 -17 22 -32 3 -14 21 -47 38 -72 18 -25 33 -52 35 -60 2 -8 13 -23 23 -34 11 -10 18 -25 15 -33 -4 -10 -2 -13 7 -10 7 3 22 -6 33 -19 10 -14 29 -36 42 -49 13 -14 21 -29 18 -34 -5 -8 51 -45 144 -93 19 -10 27 -18 18 -18 -21 0 -120 53 -181 96 -26 19 -52 32 -58 29 -5 -4 -8 -3 -7 2 3 9 -5 13 -24 13 -7 0 1 -9 17 -20 17 -11 24 -20 17 -20 -20 0 -162 108 -162 124 0 5 7 3 15 -4 13 -11 14 -10 9 4 -3 9 -4 16 0 16 9 0 71 -64 71 -74 0 -5 11 -11 25 -13 23 -3 22 0 -15 35 -22 21 -43 37 -47 35 -5 -2 -8 3 -8 11 0 9 -6 16 -14 16 -8 0 -18 9 -21 20 -3 11 -11 20 -16 20 -6 0 -8 4 -5 9 3 4 -6 18 -19 31 -13 13 -22 27 -18 33 3 6 -1 15 -9 21 -29 21 -67 87 -61 104 3 9 2 14 -2 10 -5 -5 -16 4 -25 20 -12 18 -14 29 -6 34 18 12 -11 32 -49 33 -26 1 -36 -3 -41 -17 -3 -10 -9 -16 -14 -13 -5 3 -11 -1 -13 -7 -3 -7 -6 -5 -6 6 -1 10 -12 42 -25 70 -32 68 -49 123 -41 136 3 5 2 10 -3 10 -5 0 -10 11 -11 25 -1 14 -3 36 -4 50 -1 14 -5 25 -8 25 -4 0 -9 20 -10 44 -2 24 -1 42 4 39 4 -2 7 -15 7 -29 0 -14 4 -23 8 -20 5 3 19 -17 31 -44 12 -26 29 -54 37 -61 9 -7 4 9 -11 37 -35 63 -75 180 -75 215 0 32 9 61 19 55 3 -2 7 17 9 42 3 51 60 166 120 241 49 62 111 121 125 118 7 -1 11 3 10 10 -1 6 14 24 35 40 96 74 164 108 119 59z m37 -23 c-10 -21 -17 -44 -15 -52 1 -8 -3 -12 -12 -8 -10 4 -15 -1 -15 -16 -1 -35 -47 -158 -57 -150 -4 4 -6 1 -3 -8 3 -8 -5 -53 -19 -100 -26 -86 -25 -80 -35 -481 -1 -43 -4 -78 -7 -78 -10 0 -50 141 -61 211 -16 107 -11 287 9 275 3 -2 7 12 7 32 2 57 9 81 45 162 39 89 73 143 83 133 4 -4 4 0 1 8 -4 10 11 34 41 67 26 29 50 50 52 47 3 -2 -4 -21 -14 -42z m-275 -1026 c6 -8 8 -17 5 -20 -4 -3 3 -18 15 -33 11 -15 21 -32 21 -38 1 -18 67 -119 72 -110 3 5 3 3 1 -4 -4 -19 27 -63 40 -55 6 3 7 1 3 -5 -4 -6 1 -23 10 -37 15 -23 15 -25 0 -25 -9 0 -16 8 -16 19 0 11 -4 22 -8 25 -13 8 -172 277 -172 290 0 11 17 6 29 -7z m-43 -6 c-3 -4 3 -16 14 -26 11 -10 17 -22 14 -26 -3 -5 0 -9 7 -9 8 0 8 -4 -1 -15 -7 -8 -17 -12 -24 -8 -6 4 -5 -1 3 -10 14 -18 26 -23 16 -8 -3 5 0 13 6 17 11 7 31 -18 35 -44 1 -7 15 -29 30 -49 15 -20 22 -33 15 -28 -9 5 -12 3 -9 -6 3 -8 11 -13 17 -12 6 2 10 0 10 -5 -3 -20 2 -32 13 -26 7 4 8 3 4 -4 -4 -7 -3 -12 2 -12 6 0 12 -7 16 -15 7 -21 3 -19 -28 10 -15 14 -25 25 -23 25 2 0 -13 18 -35 41 -21 22 -35 45 -32 51 4 7 14 2 27 -13 l19 -24 -15 25 c-8 14 -21 24 -28 23 -15 -2 -50 39 -53 63 -1 8 -8 20 -15 27 -10 9 -11 8 -6 -8 5 -15 4 -17 -3 -6 -6 8 -8 21 -4 29 4 11 2 13 -8 7 -7 -5 -5 4 6 18 17 24 43 39 30 18z"/> <path d="M1746 3333 c-6 -14 -5 -15 5 -6 7 7 10 15 7 18 -3 3 -9 -2 -12 -12z"/> <path d="M1465 2440 c3 -5 8 -10 11 -10 2 0 4 5 4 10 0 6 -5 10 -11 10 -5 0 -7 -4 -4 -10z"/> <path d="M1506 2395 c-9 -26 -7 -32 5 -12 6 10 9 21 6 23 -2 3 -7 -2 -11 -11z"/> <path d="M1834 2029 c-4 -7 -3 -9 4 -5 5 3 13 0 15 -6 4 -9 6 -10 6 -1 1 17 -16 25 -25 12z"/> <path d="M1867 2005 c-6 -15 107 -125 127 -125 6 1 0 10 -14 22 -14 11 -24 25 -22 29 1 5 -3 9 -9 9 -5 0 -7 5 -3 12 5 7 3 8 -5 4 -14 -9 -53 22 -45 35 3 5 -2 6 -11 3 -11 -5 -14 -2 -9 10 3 9 4 16 1 16 -3 0 -7 -7 -10 -15z"/> <path d="M1687 2949 c4 -13 8 -18 11 -10 2 7 -1 18 -6 23 -8 8 -9 4 -5 -13z"/> <path d="M1701 2764 c0 -11 3 -14 6 -6 3 7 2 16 -1 19 -3 4 -6 -2 -5 -13z"/> <path d="M1701 2534 c0 -11 3 -14 6 -6 3 7 2 16 -1 19 -3 4 -6 -2 -5 -13z"/> <path d="M1546 2307 c3 -10 9 -15 12 -12 3 3 0 11 -7 18 -10 9 -11 8 -5 -6z"/> <path d="M3175 3446 c-92 -29 -130 -62 -175 -151 -14 -28 -29 -53 -35 -57 -5 -4 -7 -9 -4 -13 3 -3 23 8 44 25 21 17 61 44 89 60 28 16 78 56 111 89 53 55 57 61 35 60 -14 0 -43 -6 -65 -13z m-9 -53 c-14 -7 -26 -21 -26 -30 0 -14 -2 -14 -15 3 -14 18 -14 18 -10 -4 2 -13 0 -20 -6 -16 -6 3 -18 -1 -27 -8 -9 -8 -24 -19 -32 -23 -13 -8 -13 -7 -1 8 7 9 10 17 5 17 -5 1 6 14 25 30 19 16 38 27 41 25 4 -3 13 1 19 9 7 8 21 12 33 8 20 -5 19 -6 -6 -19z"/> <path d="M3139 3393 c-13 -16 -12 -17 4 -4 16 13 21 21 13 21 -2 0 -10 -8 -17 -17z"/> <path d="M1418 3239 c-22 -12 -23 -52 -4 -68 20 -16 56 3 56 29 0 14 -24 51 -33 50 -1 0 -10 -5 -19 -11z m32 -32 c0 -8 -6 -14 -13 -14 -8 0 -14 6 -14 14 0 7 6 13 14 13 7 0 13 -6 13 -13z"/> <path d="M3410 3207 c0 -3 26 -17 57 -32 115 -52 189 -140 214 -252 43 -193 -143 -434 -446 -578 -260 -123 -370 -169 -387 -160 -7 3 -2 -2 11 -12 37 -28 129 -64 195 -77 67 -14 92 -39 29 -29 -92 13 -176 33 -233 56 l-61 25 -77 -31 c-83 -33 -116 -53 -67 -41 35 9 26 9 140 -5 50 -6 113 -11 142 -11 28 0 55 -5 58 -11 10 -16 -300 -4 -350 13 -22 8 -95 36 -163 62 -68 26 -126 45 -129 42 -3 -3 5 -9 18 -14 13 -5 72 -26 131 -48 59 -21 106 -43 104 -49 -4 -12 0 -12 208 -21 l160 -7 -63 -23 c-35 -13 -67 -21 -72 -18 -5 3 -9 1 -9 -4 0 -16 -65 -30 -86 -19 -18 10 -18 9 -4 -8 14 -17 13 -18 -2 -13 -9 4 -24 0 -35 -7 -10 -8 -13 -15 -6 -15 6 0 15 5 18 10 4 6 10 8 14 5 9 -5 87 21 254 85 60 22 113 40 119 38 13 -5 -66 -35 -302 -119 -91 -32 -158 -58 -149 -58 8 -1 73 19 144 44 70 24 132 42 138 38 6 -3 7 -1 3 5 -5 8 1 12 17 12 31 0 87 19 87 30 0 5 11 7 25 5 14 -1 25 2 25 7 0 6 8 7 17 4 10 -4 14 -4 10 0 -14 14 35 36 121 54 48 10 113 29 146 44 32 14 62 24 66 21 4 -3 10 2 14 10 3 8 11 15 18 15 10 0 10 -2 0 -9 -8 -4 -13 -11 -12 -15 0 -3 -8 -27 -20 -52 -11 -26 -17 -51 -13 -57 3 -6 1 -7 -5 -3 -7 4 -12 1 -12 -7 0 -8 -11 -22 -25 -31 -14 -9 -23 -21 -20 -26 9 -15 -35 -59 -56 -55 -10 2 -18 1 -16 -3 1 -4 -8 -23 -21 -44 -17 -27 -28 -36 -46 -34 -19 2 -23 -1 -19 -13 4 -9 2 -13 -2 -8 -5 4 -18 1 -29 -6 -32 -20 -116 -50 -123 -43 -3 3 -14 1 -24 -5 -17 -9 -99 -13 -189 -9 -33 1 -32 2 29 26 91 35 198 103 184 117 -3 4 -11 1 -18 -6 -57 -52 -111 -82 -120 -67 -4 6 -3 10 2 10 4 0 30 20 56 45 27 25 54 42 59 38 7 -3 8 -1 4 6 -4 6 4 25 19 42 14 18 23 34 20 37 -3 3 -18 -9 -33 -28 -47 -58 -95 -102 -150 -137 -58 -37 -176 -86 -186 -76 -3 4 -6 2 -6 -4 0 -17 232 -26 318 -14 88 13 180 43 230 75 51 32 142 131 177 191 16 27 42 83 57 125 21 57 26 66 22 35 -30 -209 -180 -401 -393 -502 -137 -65 -241 -85 -454 -91 -199 -4 -314 8 -437 49 -30 10 -56 16 -58 15 -4 -4 65 -44 144 -84 145 -73 322 -112 508 -112 256 0 466 65 680 209 94 64 266 228 341 325 291 381 311 787 51 1034 -100 95 -243 165 -381 187 -22 4 -52 9 -67 11 -16 3 -28 3 -28 1z m245 -86 c-2 -4 10 -7 25 -7 17 -1 48 -16 72 -35 23 -19 38 -27 33 -19 -5 8 11 -3 36 -24 54 -48 70 -64 44 -46 -14 10 -17 10 -8 1 6 -7 22 -19 34 -25 13 -6 29 -22 35 -34 6 -13 21 -33 34 -47 19 -20 21 -30 15 -67 -36 -215 -190 -425 -423 -577 -39 -26 -69 -51 -65 -56 5 -4 2 -5 -5 -1 -7 4 -18 3 -25 -3 -29 -24 -186 -83 -250 -94 -64 -11 -70 -10 -83 7 -8 12 -25 19 -44 18 -16 0 -32 4 -36 9 -3 5 -9 7 -14 4 -5 -3 -11 -1 -15 4 -3 6 -13 7 -22 4 -10 -4 -14 -2 -10 4 4 6 0 14 -9 17 -8 3 -13 2 -10 -2 3 -5 -1 -9 -9 -9 -8 0 -12 4 -9 8 2 4 -5 11 -17 14 -20 7 -20 7 -2 19 10 7 31 16 46 20 16 4 57 20 92 37 35 16 70 27 79 23 12 -5 15 -2 10 10 -4 9 -3 16 2 15 5 -2 27 5 49 15 22 9 48 18 57 19 9 1 14 5 12 9 -3 4 7 10 21 14 13 3 22 11 19 16 -4 6 2 5 14 -1 15 -8 23 -8 28 1 4 7 3 8 -4 4 -7 -4 -12 -2 -12 3 0 6 6 11 14 11 7 0 19 7 26 15 7 8 16 12 21 9 5 -3 9 -1 9 5 0 5 9 13 20 16 11 4 18 10 16 14 -3 4 4 13 16 20 16 10 19 10 12 -1 -4 -7 4 -1 19 14 17 19 32 26 44 22 16 -6 15 -4 -2 10 -19 15 -19 16 -1 9 13 -4 17 -3 12 5 -4 7 -3 12 3 12 5 0 12 -6 15 -12 2 -7 4 -2 3 12 -1 18 3 25 15 24 10 -1 15 3 11 9 -3 5 5 19 18 29 13 11 17 17 9 13 -8 -4 -6 1 4 9 11 9 16 16 12 16 -4 0 1 13 10 29 10 17 21 28 25 26 4 -3 6 1 6 8 -1 17 26 107 33 107 3 0 4 30 4 67 -2 67 -38 172 -65 188 -5 4 -14 18 -20 32 -6 16 -13 22 -21 17 -8 -5 -7 0 2 11 8 10 10 16 4 12 -6 -3 -20 0 -30 8 -16 12 -13 12 28 3 26 -6 46 -14 43 -17z m342 -308 c-4 -3 -2 -12 4 -19 6 -8 9 -21 5 -29 -3 -9 -2 -14 3 -11 11 7 24 -41 15 -56 -4 -6 -3 -8 4 -4 6 4 11 -1 11 -11 -1 -10 0 -59 1 -110 1 -87 -6 -129 -45 -268 -13 -46 -50 -112 -42 -75 2 8 2 12 0 7 -3 -4 -10 -4 -16 0 -7 4 -6 -1 2 -10 12 -16 11 -22 -9 -49 -12 -17 -18 -28 -12 -24 15 9 3 -29 -16 -51 -35 -39 -48 -57 -33 -48 7 4 -5 -16 -27 -46 -77 -102 -95 -120 -109 -115 -8 4 -11 1 -7 -5 8 -14 -66 -90 -79 -82 -6 3 -7 2 -4 -4 9 -14 -51 -66 -69 -59 -8 3 -13 2 -10 -3 3 -4 -7 -19 -22 -33 -58 -53 -192 -138 -192 -121 0 4 -6 -1 -13 -11 -11 -16 -17 -17 -36 -7 -12 7 -19 17 -15 24 4 7 3 8 -1 4 -12 -10 -16 -39 -5 -32 5 3 11 2 14 -3 6 -9 -69 -38 -126 -48 -21 -3 -36 -9 -33 -13 2 -4 -2 -8 -10 -8 -8 0 -15 4 -15 9 0 4 -5 8 -11 8 -5 0 -7 -4 -4 -10 4 -6 -6 -10 -22 -11 -15 0 -37 -2 -48 -4 -100 -18 -182 -25 -245 -21 -114 8 -181 17 -222 31 -21 7 -35 8 -32 3 4 -5 -8 -2 -25 6 -17 9 -34 16 -38 16 -16 1 -83 21 -83 26 0 6 107 -4 134 -12 10 -3 16 -2 13 2 -3 5 54 8 125 6 72 -2 138 0 147 4 19 8 74 16 114 17 20 0 25 2 15 9 -10 7 -8 8 7 7 11 -1 37 5 57 15 21 9 44 16 52 16 8 0 18 5 21 10 3 6 12 10 18 10 7 0 6 -4 -3 -10 -9 -6 -10 -10 -3 -10 6 0 19 8 29 17 26 26 63 43 82 37 14 -5 15 -4 2 5 -17 12 -14 16 19 26 18 5 22 4 16 -5 -5 -8 -4 -11 3 -6 6 4 8 14 5 24 -6 15 -5 15 14 -1 14 -12 23 -15 28 -7 3 6 3 10 -2 9 -25 -4 -23 5 7 36 18 19 37 32 42 29 4 -3 8 1 8 8 0 7 14 24 30 38 17 14 30 30 30 36 0 6 10 19 22 30 l22 19 -19 -30 c-14 -22 -15 -27 -3 -17 13 10 17 10 21 0 3 -7 4 4 2 25 -1 20 2 37 6 37 5 0 9 8 9 18 0 10 9 28 20 40 12 12 18 22 15 22 -3 0 1 13 9 29 9 16 12 31 9 35 -4 3 -2 6 3 6 5 0 10 21 12 48 1 26 4 55 5 64 3 17 43 58 57 58 9 0 117 85 156 123 52 51 78 73 70 60 -3 -6 -2 -14 3 -18 6 -3 8 5 5 18 -5 28 32 81 48 71 7 -4 8 -2 4 5 -4 6 8 35 27 64 20 29 44 79 55 110 10 31 22 53 27 49 4 -4 4 4 0 17 -5 15 -3 21 3 17 6 -4 8 2 5 14 -6 21 2 50 13 50 4 0 4 -3 1 -7z m-1171 -715 c-10 16 4 15 28 -3 17 -13 12 -14 -52 -12 -78 4 -101 12 -56 22 16 4 34 8 39 10 6 1 19 -5 29 -14 11 -9 16 -10 12 -3z m494 -197 c0 -5 -7 -12 -16 -15 -14 -5 -15 -4 -4 9 14 17 20 19 20 6z m-439 -106 c-42 -19 -50 -19 -25 0 10 8 28 14 39 14 14 0 10 -4 -14 -14z"/> <path d="M3646 3077 c3 -10 9 -15 12 -12 3 3 0 11 -7 18 -10 9 -11 8 -5 -6z"/> <path d="M3688 3053 c7 -3 16 -2 19 1 4 3 -2 6 -13 5 -11 0 -14 -3 -6 -6z"/> <path d="M3722 2860 c0 -14 2 -19 5 -12 2 6 2 18 0 25 -3 6 -5 1 -5 -13z"/> <path d="M3656 2662 c-3 -5 1 -9 9 -9 8 0 12 4 9 9 -3 4 -7 8 -9 8 -2 0 -6 -4 -9 -8z"/> <path d="M3652 2574 c-7 -8 -8 -14 -3 -14 10 0 25 19 20 25 -2 1 -10 -3 -17 -11z"/> <path d="M3576 2502 c-3 -5 1 -9 9 -9 8 0 12 4 9 9 -3 4 -7 8 -9 8 -2 0 -6 -4 -9 -8z"/> <path d="M3523 2303 c1 -18 4 -20 17 -10 25 19 26 20 8 14 -9 -3 -19 -1 -21 6 -3 7 -4 2 -4 -10z"/> <path d="M3520 2254 c0 -8 5 -12 10 -9 6 4 8 11 5 16 -9 14 -15 11 -15 -7z"/> <path d="M2940 2180 c-9 -6 -10 -10 -3 -10 6 0 15 5 18 10 8 12 4 12 -15 0z"/> <path d="M3192 2121 c-11 -6 -10 -10 4 -15 9 -3 19 -4 22 -1 3 3 0 5 -7 5 -7 0 -9 5 -6 10 7 12 4 12 -13 1z"/> <path d="M3965 2279 c-4 -6 -5 -12 -2 -15 2 -3 7 2 10 11 7 17 1 20 -8 4z"/> <path d="M3632 2265 c-7 -8 -9 -15 -4 -15 5 0 15 7 22 15 16 19 -1 19 -18 0z"/> <path d="M3665 2261 c-3 -5 -2 -12 3 -15 5 -3 9 1 9 9 0 17 -3 19 -12 6z"/> <path d="M3580 2230 c-9 -6 -10 -10 -3 -10 6 0 15 5 18 10 8 12 4 12 -15 0z"/> <path d="M3832 2140 c0 -14 2 -19 5 -12 2 6 2 18 0 25 -3 6 -5 1 -5 -13z"/> <path d="M3897 2133 c-4 -3 -7 -11 -7 -17 0 -6 5 -5 12 2 6 6 9 14 7 17 -3 3 -9 2 -12 -2z"/> <path d="M3780 2060 c0 -5 5 -10 11 -10 5 0 7 5 4 10 -3 6 -8 10 -11 10 -2 0 -4 -4 -4 -10z"/> <path d="M3665 1990 c3 -5 8 -10 11 -10 2 0 4 5 4 10 0 6 -5 10 -11 10 -5 0 -7 -4 -4 -10z"/> <path d="M3779 1965 c-1 -3 -2 -8 -3 -12 -1 -5 -5 -15 -10 -23 -7 -12 -6 -13 4 -3 13 12 23 43 14 43 -2 0 -5 -2 -5 -5z"/> <path d="M3511 1904 c0 -11 3 -14 6 -6 3 7 2 16 -1 19 -3 4 -6 -2 -5 -13z"/> <path d="M3674 1838 l-19 -23 23 19 c21 18 27 26 19 26 -2 0 -12 -10 -23 -22z"/> <path d="M3307 1579 c7 -7 15 -10 18 -7 3 3 -2 9 -12 12 -14 6 -15 5 -6 -5z"/> <path d="M2938 1483 c6 -2 18 -2 25 0 6 3 1 5 -13 5 -14 0 -19 -2 -12 -5z"/> <path d="M1415 3130 c-15 -46 -33 -185 -25 -193 4 -5 8 2 8 15 0 13 7 61 17 106 15 78 16 121 0 72z"/> <path d="M3120 3026 c-30 -13 -77 -33 -104 -46 -147 -67 -295 -74 -403 -20 -30 16 -62 26 -69 23 -29 -11 -11 -33 53 -65 53 -26 83 -34 139 -36 90 -5 154 15 338 104 128 62 155 86 46 40z"/> <path d="M2015 2938 c-224 -236 -277 -420 -188 -659 l27 -73 11 57 c9 44 22 68 61 114 111 129 172 253 194 395 14 84 9 233 -7 249 -6 6 -39 -21 -98 -83z m86 38 c-9 -11 -8 -17 5 -30 16 -16 15 -71 -3 -130 -4 -13 -2 -16 7 -11 8 5 11 4 6 -3 -3 -6 -11 -34 -16 -62 -5 -28 -20 -66 -32 -83 -12 -17 -16 -27 -10 -23 8 4 6 -6 -5 -28 -9 -20 -21 -36 -25 -36 -5 0 -6 -5 -3 -10 11 -18 -65 -130 -87 -130 -5 0 -6 5 -2 12 4 7 3 8 -4 4 -6 -4 -9 -12 -7 -19 3 -7 -5 -23 -16 -37 -11 -14 -18 -19 -14 -12 6 11 3 12 -13 3 -12 -6 -24 -17 -28 -24 -5 -8 -2 -7 9 2 9 7 17 10 17 5 -1 -13 -30 -50 -30 -38 0 5 -5 2 -11 -6 -8 -11 -9 -8 -4 13 4 21 3 27 -6 21 -9 -5 -11 3 -6 30 3 22 2 34 -4 31 -13 -9 -11 112 2 177 10 45 30 91 86 191 6 12 33 42 60 66 26 25 39 38 29 30 -18 -13 -18 -13 -6 8 8 12 18 19 22 17 4 -3 8 -1 8 3 0 13 81 95 87 89 3 -3 1 -12 -6 -20z"/> <path d="M2047 2923 c-4 -3 -7 -13 -7 -22 1 -13 3 -13 11 2 11 19 8 33 -4 20z"/> <path d="M2042 2860 c0 -14 2 -19 5 -12 2 6 2 18 0 25 -3 6 -5 1 -5 -13z"/> <path d="M1895 2720 c3 -5 8 -10 11 -10 2 0 4 5 4 10 0 6 -5 10 -11 10 -5 0 -7 -4 -4 -10z"/> <path d="M1846 2388 c3 -5 10 -6 15 -3 13 9 11 12 -6 12 -8 0 -12 -4 -9 -9z"/> <path d="M2240 2851 c0 -9 115 -111 126 -111 4 0 -11 17 -32 38 -59 55 -94 83 -94 73z"/> <path d="M2362 2718 c-28 -28 0 -88 41 -88 21 0 47 27 47 50 0 40 -60 66 -88 38z m53 -16 c14 -10 13 -35 -2 -45 -11 -7 -53 7 -53 18 0 6 31 35 38 35 4 0 12 -4 17 -8z"/> <path d="M2480 2690 c0 -6 34 -10 83 -10 101 0 199 -26 314 -82 46 -23 86 -38 89 -35 15 15 -191 100 -299 123 -79 16 -187 19 -187 4z"/> <path d="M2200 2595 c-58 -30 -109 -56 -115 -58 -5 -3 -7 -7 -4 -11 5 -6 232 104 248 119 18 19 -41 -4 -129 -50z"/> <path d="M2440 2625 c0 -8 45 -90 90 -165 41 -67 39 -64 45 -58 3 3 -22 48 -55 101 -33 53 -60 100 -60 106 0 5 -4 13 -10 16 -5 3 -10 3 -10 0z"/> <path d="M2373 2575 c-45 -210 -63 -299 -59 -302 4 -4 25 83 61 249 9 43 15 83 13 90 -3 7 -9 -10 -15 -37z"/> <path d="M2640 2566 c0 -2 7 -9 15 -16 9 -7 15 -8 15 -2 0 5 -7 12 -15 16 -8 3 -15 4 -15 2z"/> <path d="M2982 2558 c-20 -20 -14 -48 13 -60 34 -15 61 8 51 46 -7 28 -42 36 -64 14z m43 -18 c3 -5 4 -14 0 -20 -8 -13 -35 -1 -35 16 0 16 26 19 35 4z"/> <path d="M2687 2514 c6 -15 23 -19 23 -5 0 5 -7 11 -14 14 -10 4 -13 1 -9 -9z"/> <path d="M2047 2502 c-2 -10 2 -23 10 -30 7 -7 13 -8 13 -3 0 5 3 16 6 24 3 8 -1 17 -9 20 -9 3 -17 -1 -20 -11z"/> <path d="M2920 2497 c-14 -6 -52 -23 -85 -38 -87 -40 -197 -80 -214 -78 -32 3 -41 -1 -41 -20 0 -24 25 -45 45 -37 8 3 15 14 15 25 0 14 13 24 48 37 26 9 70 27 97 39 28 13 78 33 112 46 35 13 63 27 63 32 0 9 -10 8 -40 -6z m-310 -147 c0 -5 -2 -10 -4 -10 -3 0 -8 5 -11 10 -3 6 -1 10 4 10 6 0 11 -4 11 -10z"/> <path d="M3064 2501 c4 -6 11 -11 16 -11 5 0 53 -21 107 -47 123 -60 117 -58 108 -43 -4 7 -49 32 -99 55 -106 50 -142 62 -132 46z"/> <path d="M2720 2480 c0 -6 -4 -8 -10 -5 -16 10 -11 -1 7 -16 11 -10 14 -10 9 -1 -9 15 -1 15 25 2 27 -15 24 -5 -6 14 -15 10 -25 12 -25 6z"/> <path d="M2010 2460 c0 -5 5 -10 10 -10 6 0 10 5 10 10 0 6 -4 10 -10 10 -5 0 -10 -4 -10 -10z"/> <path d="M2040 2426 c0 -29 28 -42 48 -22 13 12 13 18 2 30 -20 25 -50 20 -50 -8z"/> <path d="M2797 2413 c-3 -5 8 -8 24 -9 15 -1 26 3 23 7 -6 11 -41 12 -47 2z"/> <path d="M2145 2341 c51 -65 95 -109 95 -95 0 5 -15 25 -33 45 -17 19 -45 52 -60 72 -15 20 -33 37 -38 37 -6 0 10 -26 36 -59z"/> <path d="M2872 2380 c6 -19 68 -56 68 -41 0 7 -8 14 -17 18 -10 3 -27 13 -37 22 -16 13 -18 14 -14 1z"/> <path d="M2456 2283 c-59 -30 -106 -56 -103 -59 3 -3 51 18 108 47 111 55 115 57 108 63 -2 2 -53 -21 -113 -51z"/> <path d="M2690 2331 c0 -6 4 -13 10 -16 6 -3 7 1 4 9 -7 18 -14 21 -14 7z"/> <path d="M2950 2333 c0 -11 93 -53 103 -46 13 8 -5 22 -33 25 -14 2 -31 9 -38 16 -15 13 -32 16 -32 5z"/> <path d="M2650 2315 c0 -11 113 -155 117 -151 5 5 -105 156 -113 156 -2 0 -4 -2 -4 -5z"/> <path d="M2741 2297 c2 -1 13 -9 24 -17 19 -14 19 -14 6 3 -7 9 -18 17 -24 17 -6 0 -8 -1 -6 -3z"/> <path d="M2970 2276 c0 -2 8 -10 18 -17 15 -13 16 -12 3 4 -13 16 -21 21 -21 13z"/> <path d="M1882 2245 c8 -8 177 -38 281 -50 105 -12 58 3 -78 25 -194 31 -211 33 -203 25z"/> <path d="M2268 2243 c-36 -9 -34 -76 2 -86 53 -14 88 36 54 74 -17 19 -24 21 -56 12z m47 -23 c3 -5 1 -10 -6 -10 -9 0 -9 -3 0 -14 8 -10 9 -16 1 -21 -5 -3 -10 -1 -10 6 0 9 -3 9 -14 0 -11 -9 -15 -7 -19 11 -3 12 -4 25 -1 30 7 11 42 10 49 -2z"/> <path d="M2785 2240 c3 -5 14 -10 23 -10 15 0 15 2 2 10 -20 13 -33 13 -25 0z"/> <path d="M2815 2210 c3 -5 11 -10 16 -10 6 0 7 5 4 10 -3 6 -11 10 -16 10 -6 0 -7 -4 -4 -10z"/> <path d="M2810 2170 c-13 -8 -12 -10 3 -10 9 0 17 5 17 10 0 12 -1 12 -20 0z"/> <path d="M2200 2147 c-65 -31 -180 -100 -180 -108 0 -14 6 -12 62 25 29 18 77 45 106 60 64 32 75 52 12 23z"/> <path d="M2290 2123 c0 -19 51 -248 57 -253 8 -7 -6 80 -23 146 -8 30 -14 66 -14 79 0 13 -4 27 -10 30 -5 3 -10 3 -10 -2z"/> <path d="M2570 2031 c0 -7 -3 -10 -8 -7 -4 2 -16 -3 -27 -11 -19 -15 -19 -15 5 -8 30 9 46 22 37 32 -4 3 -7 1 -7 -6z"/> <path d="M1600 2025 c0 -2 6 -8 13 -14 10 -8 14 -7 14 2 0 8 -6 14 -14 14 -7 0 -13 -1 -13 -2z"/> <path d="M2872 1941 c-11 -7 -11 -9 0 -14 9 -3 15 1 15 9 0 8 -1 14 -1 14 -1 0 -7 -4 -14 -9z"/> <path d="M2884 1896 c1 -8 5 -18 8 -22 4 -3 5 1 4 10 -1 8 -5 18 -8 22 -4 3 -5 -1 -4 -10z"/> <path d="M2913 1895 c0 -8 4 -12 9 -9 5 3 6 10 3 15 -9 13 -12 11 -12 -6z"/> <path d="M2588 1893 c7 -3 16 -2 19 1 4 3 -2 6 -13 5 -11 0 -14 -3 -6 -6z"/> <path d="M2316 1829 c-22 -32 -4 -61 36 -57 17 2 36 11 42 21 27 43 -48 78 -78 36z m64 -11 c0 -4 -5 -10 -10 -13 -6 -4 -7 -12 -3 -18 5 -8 2 -8 -9 0 -8 7 -17 10 -21 7 -4 -4 -3 21 2 33 3 6 41 -2 41 -9z"/> <path d="M2467 1820 c10 -11 19 -20 21 -20 1 0 -2 9 -8 20 -6 11 -15 20 -20 20 -6 0 -2 -9 7 -20z"/> <path d="M2535 1790 c3 -5 8 -10 11 -10 2 0 4 5 4 10 0 6 -5 10 -11 10 -5 0 -7 -4 -4 -10z"/> <path d="M2615 1760 c17 -4 41 -8 55 -8 23 -1 23 0 5 8 -11 5 -36 8 -55 8 l-35 0 30 -8z"/> </g> </svg>